<svg width="170" height="90" viewBox="0 0 170 90" fill="none" xmlns="http://www.w3.org/2000/svg">
<rect x="0.5" y="0.5" width="169" height="89" rx="3.5" stroke="#AFB1B8"/>
<path d="M64.2405 36.8306H64.2385C62.5368 36.8306 61.1572 38.6177 61.1572 40.8223V40.8249C61.1572 43.0295 62.5368 44.8167 64.2385 44.8167H64.2405C65.9423 44.8167 67.3218 43.0295 67.3218 40.8249V40.8223C67.3218 38.6177 65.9423 36.8306 64.2405 36.8306Z" fill="#AFB1B8"/>
<path d="M86.9835 35.5545C86.9786 32.4924 86.0377 29.5575 84.3666 27.3921C82.6955 25.2266 80.4303 24.007 78.0667 24V24C75.7024 24.0056 73.4362 25.2246 71.7642 27.3902C70.0922 29.5558 69.1507 32.4915 69.1459 35.5545V35.5545V52.4402C69.1459 52.4402 86.9814 49.8667 86.9835 35.5571V35.5545Z" fill="#AFB1B8"/>
<path d="M54.9115 57.9823C54.9158 60.1129 55.5709 62.1547 56.7336 63.6615C57.8963 65.1683 59.4721 66.0177 61.1167 66.0239V66.0239C62.7609 66.0177 64.3364 65.1687 65.4991 63.6625C66.6617 62.1562 67.317 60.1151 67.3218 57.9849V57.9849V46.2356C67.3218 46.2356 54.9115 48.0276 54.9115 57.9823ZM61.1167 60.0874C60.7953 60.0874 60.4811 59.964 60.2139 59.7326C59.9467 59.5013 59.7384 59.1726 59.6154 58.7879C59.4925 58.4032 59.4603 57.98 59.523 57.5716C59.5857 57.1632 59.7404 56.7881 59.9677 56.4937C60.1949 56.1993 60.4845 55.9988 60.7997 55.9176C61.1149 55.8364 61.4416 55.8781 61.7385 56.0374C62.0354 56.1967 62.2892 56.4665 62.4677 56.8127C62.6463 57.1589 62.7416 57.5659 62.7416 57.9823C62.7424 58.2594 62.701 58.534 62.6197 58.7903C62.5384 59.0466 62.4188 59.2796 62.2678 59.476C62.1169 59.6723 61.9375 59.828 61.7399 59.9343C61.5424 60.0406 61.3306 60.0953 61.1167 60.0953V60.0874Z" fill="#AFB1B8"/>
<path d="M74.5142 58.7812H72.8267V60.5244H71.9478V56.2588H74.7251V56.9707H72.8267V58.0723H74.5142V58.7812ZM78.7388 58.4883C78.7388 58.9082 78.6646 59.2764 78.5161 59.5928C78.3677 59.9092 78.1548 60.1533 77.8774 60.3252C77.6021 60.4971 77.2856 60.583 76.9282 60.583C76.5747 60.583 76.2593 60.498 75.9819 60.3281C75.7046 60.1582 75.4897 59.916 75.3374 59.6016C75.1851 59.2852 75.1079 58.9219 75.106 58.5117V58.3008C75.106 57.8809 75.1812 57.5117 75.3315 57.1934C75.4839 56.873 75.6978 56.6279 75.9731 56.458C76.2505 56.2861 76.5669 56.2002 76.9224 56.2002C77.2778 56.2002 77.5933 56.2861 77.8687 56.458C78.146 56.6279 78.3599 56.873 78.5103 57.1934C78.6626 57.5117 78.7388 57.8799 78.7388 58.2979V58.4883ZM77.8481 58.2949C77.8481 57.8477 77.7681 57.5078 77.6079 57.2754C77.4478 57.043 77.2192 56.9268 76.9224 56.9268C76.6274 56.9268 76.3999 57.042 76.2397 57.2725C76.0796 57.501 75.9985 57.8369 75.9966 58.2803V58.4883C75.9966 58.9238 76.0767 59.2617 76.2368 59.502C76.397 59.7422 76.6274 59.8623 76.9282 59.8623C77.2231 59.8623 77.4497 59.7471 77.6079 59.5166C77.7661 59.2842 77.8462 58.9463 77.8481 58.5029V58.2949ZM81.5894 59.4053C81.5894 59.2393 81.5308 59.1123 81.4136 59.0244C81.2964 58.9346 81.0854 58.8408 80.7808 58.7432C80.4761 58.6436 80.2349 58.5459 80.0571 58.4502C79.5728 58.1885 79.3306 57.8359 79.3306 57.3926C79.3306 57.1621 79.395 56.957 79.5239 56.7773C79.6548 56.5957 79.8413 56.4541 80.0835 56.3525C80.3276 56.251 80.6011 56.2002 80.9038 56.2002C81.2085 56.2002 81.48 56.2559 81.7183 56.3672C81.9565 56.4766 82.1411 56.6318 82.272 56.833C82.4048 57.0342 82.4712 57.2627 82.4712 57.5186H81.5923C81.5923 57.3232 81.5308 57.1719 81.4077 57.0645C81.2847 56.9551 81.1118 56.9004 80.8892 56.9004C80.6743 56.9004 80.5073 56.9463 80.3882 57.0381C80.269 57.1279 80.2095 57.2471 80.2095 57.3955C80.2095 57.5342 80.2788 57.6504 80.4175 57.7441C80.5581 57.8379 80.7642 57.9258 81.0356 58.0078C81.5356 58.1582 81.8999 58.3447 82.1284 58.5674C82.3569 58.79 82.4712 59.0674 82.4712 59.3994C82.4712 59.7686 82.3315 60.0586 82.0522 60.2695C81.7729 60.4785 81.397 60.583 80.9243 60.583C80.5962 60.583 80.2974 60.5234 80.0278 60.4043C79.7583 60.2832 79.5522 60.1182 79.4097 59.9092C79.269 59.7002 79.1987 59.458 79.1987 59.1826H80.0806C80.0806 59.6533 80.3618 59.8887 80.9243 59.8887C81.1333 59.8887 81.2964 59.8467 81.4136 59.7627C81.5308 59.6768 81.5894 59.5576 81.5894 59.4053ZM86.2798 56.9707H84.9731V60.5244H84.0942V56.9707H82.8052V56.2588H86.2798V56.9707ZM89.3501 58.6758H87.6626V59.8184H89.6431V60.5244H86.7837V56.2588H89.6372V56.9707H87.6626V57.9873H89.3501V58.6758ZM91.7378 58.9629H91.0376V60.5244H90.1587V56.2588H91.7437C92.2476 56.2588 92.6362 56.3711 92.9097 56.5957C93.1831 56.8203 93.3198 57.1377 93.3198 57.5479C93.3198 57.8389 93.2563 58.082 93.1294 58.2773C93.0044 58.4707 92.814 58.625 92.5581 58.7402L93.481 60.4834V60.5244H92.5376L91.7378 58.9629ZM91.0376 58.251H91.7466C91.9673 58.251 92.1382 58.1953 92.2593 58.084C92.3804 57.9707 92.4409 57.8154 92.4409 57.6182C92.4409 57.417 92.3833 57.2588 92.2681 57.1436C92.1548 57.0283 91.98 56.9707 91.7437 56.9707H91.0376V58.251ZM72.8267 66.0215V67.5244H71.9478V63.2588H73.6118C73.9321 63.2588 74.2134 63.3174 74.4556 63.4346C74.6997 63.5518 74.8872 63.7188 75.0181 63.9355C75.1489 64.1504 75.2144 64.3955 75.2144 64.6709C75.2144 65.0889 75.0708 65.4189 74.7837 65.6611C74.4985 65.9014 74.103 66.0215 73.5972 66.0215H72.8267ZM72.8267 65.3096H73.6118C73.8442 65.3096 74.021 65.2549 74.1421 65.1455C74.2651 65.0361 74.3267 64.8799 74.3267 64.6768C74.3267 64.4678 74.2651 64.2988 74.1421 64.1699C74.019 64.041 73.8491 63.9746 73.6323 63.9707H72.8267V65.3096ZM78.3872 65.6758H76.6997V66.8184H78.6802V67.5244H75.8208V63.2588H78.6743V63.9707H76.6997V64.9873H78.3872V65.6758ZM82.4653 63.9707H81.1587V67.5244H80.2798V63.9707H78.9907V63.2588H82.4653V63.9707ZM85.5356 65.6758H83.8481V66.8184H85.8286V67.5244H82.9692V63.2588H85.8228V63.9707H83.8481V64.9873H85.5356V65.6758ZM87.9233 65.9629H87.2231V67.5244H86.3442V63.2588H87.9292C88.4331 63.2588 88.8218 63.3711 89.0952 63.5957C89.3687 63.8203 89.5054 64.1377 89.5054 64.5479C89.5054 64.8389 89.4419 65.082 89.3149 65.2773C89.1899 65.4707 88.9995 65.625 88.7437 65.7402L89.6665 67.4834V67.5244H88.7231L87.9233 65.9629ZM87.2231 65.251H87.9321C88.1528 65.251 88.3237 65.1953 88.4448 65.084C88.5659 64.9707 88.6265 64.8154 88.6265 64.6182C88.6265 64.417 88.5688 64.2588 88.4536 64.1436C88.3403 64.0283 88.1655 63.9707 87.9292 63.9707H87.2231V65.251ZM92.3882 66.4053C92.3882 66.2393 92.3296 66.1123 92.2124 66.0244C92.0952 65.9346 91.8843 65.8408 91.5796 65.7432C91.2749 65.6436 91.0337 65.5459 90.856 65.4502C90.3716 65.1885 90.1294 64.8359 90.1294 64.3926C90.1294 64.1621 90.1938 63.957 90.3228 63.7773C90.4536 63.5957 90.6401 63.4541 90.8823 63.3525C91.1265 63.251 91.3999 63.2002 91.7026 63.2002C92.0073 63.2002 92.2788 63.2559 92.5171 63.3672C92.7554 63.4766 92.9399 63.6318 93.0708 63.833C93.2036 64.0342 93.27 64.2627 93.27 64.5186H92.3911C92.3911 64.3232 92.3296 64.1719 92.2065 64.0645C92.0835 63.9551 91.9106 63.9004 91.688 63.9004C91.4731 63.9004 91.3062 63.9463 91.187 64.0381C91.0679 64.1279 91.0083 64.2471 91.0083 64.3955C91.0083 64.5342 91.0776 64.6504 91.2163 64.7441C91.3569 64.8379 91.563 64.9258 91.8345 65.0078C92.3345 65.1582 92.6987 65.3447 92.9272 65.5674C93.1558 65.79 93.27 66.0674 93.27 66.3994C93.27 66.7686 93.1304 67.0586 92.8511 67.2695C92.5718 67.4785 92.1958 67.583 91.7231 67.583C91.395 67.583 91.0962 67.5234 90.8267 67.4043C90.5571 67.2832 90.3511 67.1182 90.2085 66.9092C90.0679 66.7002 89.9976 66.458 89.9976 66.1826H90.8794C90.8794 66.6533 91.1606 66.8887 91.7231 66.8887C91.9321 66.8887 92.0952 66.8467 92.2124 66.7627C92.3296 66.6768 92.3882 66.5576 92.3882 66.4053Z" fill="#AFB1B8"/>
</svg>
